<svg id="Layer_1" data-name="Layer 1" xmlns="http://www.w3.org/2000/svg" width="546.28268" height="545.46337" viewBox="0 0 546.28268 545.46337">
  <defs>
    <clipPath id="clip-path" transform="translate(-227.06745 -227.29029)">
      <rect x="227.06815" y="227.29035" width="546.28198" height="545.46301" fill="none"/>
    </clipPath>
  </defs>
  <g clip-path="url(#clip-path)">
    <path d="M256.91845 271.23075a15.6601 15.6601 0 0 1-14.193 9.036c-.23 0-.46-.005-.688-.015v32.892l51.581-25.396v-.185Z" transform="translate(-227.06745 -227.29029)" fill="#de8a8a"/>
    <path d="M242.72585 248.95094a15.65807 15.65807 0 0 0-.688 31.301V264.609l14.881 6.622a15.66539 15.66539 0 0 0-14.193-22.28" transform="translate(-227.06745 -227.29029)" fill="#de7373"/>
    <path d="M242.03785 264.60877v15.643q.342.015.688.015a15.6601 15.6601 0 0 0 14.193-9.036Z" transform="translate(-227.06745 -227.29029)" fill="#d13d3d"/>
    <path d="M336.16065 269.68458h-42.542v17.878l.198.088 29.069-14.312v17.617a9.31765 9.31765 0 1 1-8.633 5.789l-20.436-9.094-.198.098v24.478h42.542Z" transform="translate(-227.06745 -227.29029)" fill="#edbaba"/>
    <path d="m322.88545 273.33848-29.069 14.312 20.437 9.094a9.3295 9.3295 0 0 1 8.632-5.789Zm-29.267 14.224v.186l.198-.098Z" transform="translate(-227.06745 -227.29029)" fill="#d66666"/>
    <path d="M322.88575 290.95558v9.631l-8.633-3.842a9.32884 9.32884 0 1 0 8.633-5.789" transform="translate(-227.06745 -227.29029)" fill="#cc6b6b"/>
    <path d="M322.88575 290.95558a9.33042 9.33042 0 0 0-8.633 5.789l8.633 3.842Z" transform="translate(-227.06745 -227.29029)" fill="#bf3838"/>
    <path d="M540.70914 418.20237h-83.46v136.204h83.46Zm-83.459 28.824a27.9865 27.9865 0 1 1 27.986 27.987q-.37349 0-.746-.01v79.403h-27.24Zm55.973 0h27.24v107.38h-27.24Z" transform="translate(-227.06745 -227.29029)" fill="#e3b5b5"/>
  </g>
  <rect x="286.1557" y="219.73608" width="27.23999" height="107.38" fill="#d67d7d"/>
  <g clip-path="url(#clip-path)">
    <path d="M457.24974 447.02656v107.38h27.24v-79.403a27.98747 27.98747 0 0 1-27.24-27.977" transform="translate(-227.06745 -227.29029)" fill="#d67d7d"/>
    <path d="M485.23664 419.04057a27.9859 27.9859 0 0 0-27.987 27.986h27.24v27.977c.249.007.497.01.747.01a27.98651 27.98651 0 0 0 0-55.973" transform="translate(-227.06745 -227.29029)" fill="#d16161"/>
    <path d="M484.48975 447.02656h-27.24a27.98747 27.98747 0 0 0 27.24 27.977Z" transform="translate(-227.06745 -227.29029)" fill="#c94242"/>
  </g>
  <polyline points="440.011 53.307 440.011 53.307 440.011 109.092 529.028 109.092 470.419 109.092 470.419 75.436 440.012 86.839 440.012 53.307" fill="#ebb0b0"/>
  <path d="M756.09568 280.59788h-.402l.402.15Zm0 .15-58.61 21.979v33.656h58.61Z" transform="translate(-227.06745 -227.29029)" fill="#db7878"/>
  <g clip-path="url(#clip-path)">
    <path d="M667.07926 255.04469v25.553h88.615l-48.045-18.017a22.56067 22.56067 0 0 1-40.57-7.536" transform="translate(-227.06745 -227.29029)" fill="#de8a8a"/>
  </g>
  <polygon points="470.418 53.307 440.01 53.307 440.011 86.839 470.418 75.436 470.418 53.307" fill="#d45e5e"/>
  <polygon points="528.627 53.307 470.419 53.307 470.419 75.436 529.029 53.457 528.627 53.307" fill="#cc4040"/>
  <g clip-path="url(#clip-path)">
    <path d="M689.03165 227.29029a22.57161 22.57161 0 0 0-21.952 27.754v-7.677l40.57 15.214a22.55823 22.55823 0 0 0-18.618-35.291" transform="translate(-227.06745 -227.29029)" fill="#de8a8a"/>
    <path d="M667.07926 247.36726v7.677a22.56049 22.56049 0 0 0 40.57 7.537Z" transform="translate(-227.06745 -227.29029)" fill="#cf4a4a"/>
    <path d="M529.33014 664.57987h-27.689a28.19479 28.19479 0 0 1-28.194 28.194v79.979h-27.442 55.636v-108.173h27.441v108.173h.248Z" transform="translate(-227.06745 -227.29029)" fill="#ebb0b0"/>
  </g>
  <rect x="274.5737" y="437.28907" width="27.44101" height="108.174" fill="#db7878"/>
  <g clip-path="url(#clip-path)">
    <path d="M555.16776 636.38757h-81.721a28.19309 28.19309 0 0 1 28.194 28.192h53.527Z" transform="translate(-227.06745 -227.29029)" fill="#ebb0b0"/>
    <path d="M446.00515 671.07546v101.678h27.442v-79.98a28.20386 28.20386 0 0 1-27.442-21.698" transform="translate(-227.06745 -227.29029)" fill="#db7878"/>
    <path d="M473.44684 636.38757a28.217 28.217 0 0 0-27.442 34.688v-6.496h27.442Z" transform="translate(-227.06745 -227.29029)" fill="#de8a8a"/>
    <path d="M501.64066 664.57987h-28.194v28.194a28.19416 28.19416 0 0 0 28.194-28.194M473.44684 636.38757v28.192h28.194a28.19309 28.19309 0 0 0-28.194-28.192" transform="translate(-227.06745 -227.29029)" fill="#d45e5e"/>
    <path d="M473.44684 664.57987h-27.442v6.496a28.205 28.205 0 0 0 27.442 21.698Z" transform="translate(-227.06745 -227.29029)" fill="#cc4040"/>
  </g>
  <rect x="492.75671" y="437.29108" width="27.44199" height="108.172" fill="#ebb0b0"/>
  <g clip-path="url(#clip-path)">
    <path d="M773.35013 636.38757h-81.719a28.1935 28.1935 0 0 1 28.194 28.194h53.525ZM664.18946 671.07107v101.682h27.442v-79.978a28.20361 28.20361 0 0 1-27.442-21.704" transform="translate(-227.06745 -227.29029)" fill="#ebb0b0"/>
    <path d="M691.63172 636.38748a28.21721 28.21721 0 0 0-27.442 34.684v-6.49h27.442Zm28.193 28.194h-28.193v28.193a28.19309 28.19309 0 0 0 28.193-28.193" transform="translate(-227.06745 -227.29029)" fill="#de8a8a"/>
    <path d="M691.63135 636.38757v28.194h28.193a28.19266 28.19266 0 0 0-28.193-28.194M691.63135 664.58147h-27.442v6.49a28.20276 28.20276 0 0 0 27.442 21.703Z" transform="translate(-227.06745 -227.29029)" fill="#d45e5e"/>
  </g>
  <path d="M227.79945 552.83508Zm26.725-67.908v67.908h10.291v-67.908Z" transform="translate(-227.06745 -227.29029)" fill="#ebb0b0"/>
  <rect x="37.7477" y="257.63708" width="71.345" height="67.90799" fill="#db7878"/>
  <g clip-path="url(#clip-path)">
    <path d="M227.79985 453.81327v31.114h26.725v-9.98a27.466 27.466 0 0 1-26.725-21.134" transform="translate(-227.06745 -227.29029)" fill="#ebb0b0"/>
  </g>
  <rect x=".7327" y="257.63608" width="26.725" height="67.90799" fill="#db7878"/>
  <g clip-path="url(#clip-path)">
    <path d="M254.52445 420.03385a27.47876 27.47876 0 0 0-26.725 33.779v-6.322h26.725v27.456a27.45652 27.45652 0 0 0 0-54.913" transform="translate(-227.06745 -227.29029)" fill="#de8a8a"/>
    <path d="M254.52445 447.49037h-26.725v6.323a27.46883 27.46883 0 0 0 26.725 21.134Z" transform="translate(-227.06745 -227.29029)" fill="#d45e5e"/>
    <path d="M751.498 466.50855h-22.542a22.95034 22.95034 0 0 1-22.951 22.951v65.109h-22.339v-82.776a23.0007 23.0007 0 0 1-.611-5.284h-19.617v88.06h65.518v-88.06h22.34v88.06h.202Z" transform="translate(-227.06745 -227.29029)" fill="#ebb0b0"/>
  </g>
  <rect x="501.88873" y="239.21808" width="22.34" height="88.06" fill="#db7878"/>
  <g clip-path="url(#clip-path)">
    <path d="M772.53122 443.558h-66.526a22.95036 22.95036 0 0 1 22.951 22.951h43.575Z" transform="translate(-227.06745 -227.29029)" fill="#ebb0b0"/>
    <path d="M683.66626 471.79276v82.775h22.339v-65.108a22.9608 22.9608 0 0 1-22.339-17.667" transform="translate(-227.06745 -227.29029)" fill="#db7878"/>
    <path d="M706.00544 443.558a22.951 22.951 0 0 0-22.951 22.951h22.951Z" transform="translate(-227.06745 -227.29029)" fill="#de8a8a"/>
    <path d="M728.95624 466.50855h-22.951v22.951a22.951 22.951 0 0 0 22.951-22.951m-45.29 0h-.612a23.00092 23.00092 0 0 0 .612 5.284Z" transform="translate(-227.06745 -227.29029)" fill="#d45e5e"/>
    <path d="M706.00544 443.558v22.951h22.951a22.95036 22.95036 0 0 0-22.951-22.951" transform="translate(-227.06745 -227.29029)" fill="#d45e5e"/>
    <path d="M706.00544 466.50855h-22.339v5.284a22.96082 22.96082 0 0 0 22.339 17.667Z" transform="translate(-227.06745 -227.29029)" fill="#cc4040"/>
    <path d="M336.98075 664.58067h-53.527a28.19244 28.19244 0 0 1-28.193 28.193v79.98h-27.441 55.634v-108.173h27.442v108.173h26.085Z" transform="translate(-227.06745 -227.29029)" fill="#ebb0b0"/>
  </g>
  <rect x="56.3867" y="437.29008" width="27.442" height="108.173" fill="#db7878"/>
  <g clip-path="url(#clip-path)">
    <path d="M336.98075 636.38757h-81.72a28.19244 28.19244 0 0 1 28.193 28.193h53.527Z" transform="translate(-227.06745 -227.29029)" fill="#ebb0b0"/>
    <path d="M227.81985 671.07757v101.676h27.441v-79.98a28.20461 28.20461 0 0 1-27.441-21.696" transform="translate(-227.06745 -227.29029)" fill="#db7878"/>
    <path d="M255.26055 636.38757a28.21883 28.21883 0 0 0-27.441 34.69v-6.497h27.441Z" transform="translate(-227.06745 -227.29029)" fill="#de8a8a"/>
    <path d="M283.45385 664.58067h-28.193v28.193a28.19244 28.19244 0 0 0 28.193-28.193M255.26055 636.38757v28.193h28.193a28.19244 28.19244 0 0 0-28.193-28.193" transform="translate(-227.06745 -227.29029)" fill="#d45e5e"/>
    <path d="M255.26055 664.58067h-27.441v6.497a28.20461 28.20461 0 0 0 27.441 21.696Z" transform="translate(-227.06745 -227.29029)" fill="#cc4040"/>
    <path d="M554.45075 227.29029h-109.093v54.018l72.437-27.042v35.78a18.36237 18.36237 0 1 1-17.225 11.95l-55.212-20.611v54.998h109.093Z" transform="translate(-227.06745 -227.29029)" fill="#ebb0b0"/>
  </g>
  <polygon points="218.186 54.056 218.29 54.096 218.29 54.017 218.186 54.056" fill="#de8a8a"/>
  <g clip-path="url(#clip-path)">
    <path d="m517.79425 254.26588-72.437 27.042v.078l55.213 20.611a18.38723 18.38723 0 0 1 17.224-11.95Z" transform="translate(-227.06745 -227.29029)" fill="#d45e5e"/>
    <path d="M517.79425 290.04646v18.38l-17.224-6.43a18.3832 18.3832 0 1 0 17.224-11.95" transform="translate(-227.06745 -227.29029)" fill="#d45e5e"/>
    <path d="M517.79425 290.04646a18.38722 18.38722 0 0 0-17.224 11.95l17.224 6.43Z" transform="translate(-227.06745 -227.29029)" fill="#c73333"/>
  </g>
</svg>
