<svg id="Layer_2" data-name="Layer 2" xmlns="http://www.w3.org/2000/svg" width="1818.27845" height="1002.85706" viewBox="0 0 1818.27845 1002.85706">
  <defs>
    <clipPath id="clip-path" transform="translate(-585.60664 -993.31756)">
      <rect x="585.60714" y="993.31762" width="1818.27795" height="1002.85699" fill="none"/>
    </clipPath>
  </defs>
  <rect x="1663.99244" y="810.00105" width="38.57104" height="192.856" fill="#6b9494"/>
  <rect x="1741.13551" y="771.42805" width="38.57104" height="231.429" fill="#476161"/>
  <rect x="1702.56349" y="771.42905" width="115.71497" height="38.57201" fill="#6b9494"/>
  <g clip-path="url(#clip-path)">
    <path d="M2288.17037 1841.889a38.5715 38.5715 0 1 0-38.571-38.571 38.57206 38.57206 0 0 0 38.571 38.571" transform="translate(-585.60664 -993.31756)" fill="#87baba"/>
  </g>
  <rect x="1331.19447" y="810.00105" width="38.57104" height="192.856" fill="#6b9494"/>
  <rect x="1408.33656" y="771.42805" width="38.57104" height="231.429" fill="#93c2c2"/>
  <rect x="1369.76551" y="771.42807" width="115.71497" height="38.57199" fill="#6b9494"/>
  <g clip-path="url(#clip-path)">
    <path d="M1955.372 1841.889a38.5715 38.5715 0 1 0-38.571-38.571 38.57206 38.57206 0 0 0 38.571 38.571" transform="translate(-585.60664 -993.31756)" fill="#384d4d"/>
  </g>
  <rect x="998.39552" y="810.00105" width="38.57104" height="192.856" fill="#6b9494"/>
  <rect x="1075.53846" y="771.42805" width="38.57202" height="231.429" fill="#93c2c2"/>
  <rect x="1036.96754" y="771.42807" width="115.71497" height="38.57199" fill="#6b9494"/>
  <g clip-path="url(#clip-path)">
    <path d="M1622.57369 1841.889a38.5715 38.5715 0 1 0-38.571-38.571 38.57206 38.57206 0 0 0 38.571 38.571" transform="translate(-585.60664 -993.31756)" fill="#93c2c2"/>
  </g>
  <rect x="665.59748" y="810.00105" width="38.57098" height="192.856" fill="#93c2c2"/>
  <rect x="742.73951" y="771.42805" width="38.57202" height="231.429" fill="#93c2c2"/>
  <rect x="704.16853" y="771.42807" width="115.71399" height="38.57199" fill="#6b9494"/>
  <g clip-path="url(#clip-path)">
    <path d="M1289.77541 1841.889a38.5715 38.5715 0 1 0-38.571-38.571 38.57207 38.57207 0 0 0 38.571 38.571" transform="translate(-585.60664 -993.31756)" fill="#fcb500"/>
  </g>
  <rect x="332.7985" y="810.00105" width="38.57101" height="192.856" fill="#6b9494"/>
  <rect x="409.94151" y="771.42805" width="38.57199" height="231.429" fill="#6b9494"/>
  <rect x="371.37049" y="771.42807" width="115.71399" height="38.57199" fill="#93c2c2"/>
  <g clip-path="url(#clip-path)">
    <path d="M956.977 1841.889a38.5715 38.5715 0 1 0-38.572-38.571 38.57208 38.57208 0 0 0 38.572 38.571" transform="translate(-585.60664 -993.31756)" fill="#fcb500"/>
  </g>
  <rect x=".0005" y="810.00105" width="38.571" height="192.856" fill="#93c2c2"/>
  <rect x="77.1435" y="771.42805" width="38.572" height="231.429" fill="#93c2c2"/>
  <rect x="38.5725" y="771.42807" width="115.714" height="38.57199" fill="#93c2c2"/>
  <g clip-path="url(#clip-path)">
    <path d="M624.17864 1841.889a38.5715 38.5715 0 1 0-38.572-38.571 38.57206 38.57206 0 0 0 38.572 38.571" transform="translate(-585.60664 -993.31756)" fill="#fcb500"/>
  </g>
  <rect x="1663.99244" y="424.28607" width="38.57104" height="192.85699" fill="#ff8700"/>
  <rect x="1741.13453" y="385.71509" width="38.57202" height="231.42798" fill="#99b09c"/>
  <rect x="1702.56349" y="385.71509" width="115.71497" height="38.57098" fill="#93c2c2"/>
  <g clip-path="url(#clip-path)">
    <path d="M2288.17037 1456.17461a38.57147 38.57147 0 1 0-38.571-38.571 38.57205 38.57205 0 0 0 38.571 38.571" transform="translate(-585.60664 -993.31756)" fill="#457063"/>
  </g>
  <rect x="1663.99244" y="38.57208" width="38.57104" height="192.85699" fill="#949494"/>
  <rect x="1741.13551" y=".00006" width="38.57104" height="231.42798" fill="#949494"/>
  <rect x="1702.56349" y=".0011" width="115.71497" height="38.57098" fill="#93c2c2"/>
  <g clip-path="url(#clip-path)">
    <path d="M2288.17037 1070.4605a38.57147 38.57147 0 1 0-38.571-38.571 38.57205 38.57205 0 0 0 38.571 38.571" transform="translate(-585.60664 -993.31756)" fill="#b2b2b2"/>
  </g>
  <rect x="1331.19447" y="38.57208" width="38.57104" height="192.85699" fill="#949494"/>
  <rect x="1408.33656" y=".00006" width="38.57104" height="231.42798" fill="#949494"/>
  <rect x="1369.76551" y=".0011" width="115.71497" height="38.57098" fill="#b2b2b2"/>
  <g clip-path="url(#clip-path)">
    <path d="M1955.372 1070.4605a38.57147 38.57147 0 1 0-38.571-38.571 38.57205 38.57205 0 0 0 38.571 38.571" transform="translate(-585.60664 -993.31756)" fill="#616161"/>
  </g>
  <rect x="998.39552" y="38.57208" width="38.57104" height="192.85699" fill="#949494"/>
  <rect x="1075.53846" y=".00006" width="38.57202" height="231.42798" fill="#b2b2b2"/>
  <rect x="1036.96644" y=".0011" width="115.71497" height="38.57098" fill="#616161"/>
  <g clip-path="url(#clip-path)">
    <path d="M1622.57369 1070.4605a38.57147 38.57147 0 1 0-38.571-38.571 38.57205 38.57205 0 0 0 38.571 38.571" transform="translate(-585.60664 -993.31756)" fill="#b2b2b2"/>
  </g>
  <rect x="665.59748" y="38.57208" width="38.57098" height="192.85699" fill="#616161"/>
  <rect x="742.73951" y=".00006" width="38.57202" height="231.42798" fill="#b2b2b2"/>
  <rect x="704.16853" y=".0011" width="115.71503" height="38.57098" fill="#949494"/>
  <g clip-path="url(#clip-path)">
    <path d="M1289.77541 1070.4605a38.57147 38.57147 0 1 0-38.571-38.571 38.57206 38.57206 0 0 0 38.571 38.571" transform="translate(-585.60664 -993.31756)" fill="#b2b2b2"/>
  </g>
  <rect x="332.7985" y="38.57208" width="38.57101" height="192.85699" fill="#616161"/>
  <rect x="409.94151" y=".00006" width="38.57199" height="231.42798" fill="#616161"/>
  <rect x="371.37049" y=".0011" width="115.715" height="38.57098" fill="#949494"/>
  <g clip-path="url(#clip-path)">
    <path d="M956.977 1070.4605a38.57147 38.57147 0 1 0-38.572-38.571 38.57207 38.57207 0 0 0 38.572 38.571" transform="translate(-585.60664 -993.31756)" fill="#b2b2b2"/>
  </g>
  <rect x=".0005" y="38.57104" width="38.571" height="192.85699" fill="#949494"/>
  <rect x="77.1435" y=".00006" width="38.572" height="231.42798" fill="#616161"/>
  <rect x="38.5715" y=".0011" width="115.715" height="38.57098" fill="#949494"/>
  <g clip-path="url(#clip-path)">
    <path d="M624.17864 1070.4605a38.57147 38.57147 0 1 0-38.572-38.571 38.57205 38.57205 0 0 0 38.572 38.571" transform="translate(-585.60664 -993.31756)" fill="#b2b2b2"/>
  </g>
  <rect x="1331.19447" y="424.28607" width="38.57104" height="192.85699" fill="#ff8700"/>
  <rect x="1408.33656" y="385.71509" width="38.57202" height="231.42798" fill="#99b09c"/>
  <rect x="1369.76551" y="385.71405" width="115.71497" height="38.57202" fill="#f7e5a8"/>
  <g clip-path="url(#clip-path)">
    <path d="M1955.372 1456.17461a38.57147 38.57147 0 1 0-38.571-38.571 38.57205 38.57205 0 0 0 38.571 38.571" transform="translate(-585.60664 -993.31756)" fill="#457063"/>
  </g>
  <rect x="998.39552" y="424.28607" width="38.57104" height="192.85699" fill="#ffba00"/>
  <rect x="1075.53846" y="385.71509" width="38.57202" height="231.42798" fill="#9ca6b2"/>
  <rect x="1036.96754" y="385.71405" width="115.71497" height="38.57202" fill="#9ed4bf"/>
  <g clip-path="url(#clip-path)">
    <path d="M1622.57369 1456.17461a38.57147 38.57147 0 1 0-38.571-38.571 38.57205 38.57205 0 0 0 38.571 38.571" transform="translate(-585.60664 -993.31756)" fill="#ff635c"/>
  </g>
  <rect x="665.59748" y="424.28607" width="38.57098" height="192.85699" fill="#ded9c2"/>
  <rect x="742.73951" y="385.71509" width="38.57202" height="231.42798" fill="#9ca6b2"/>
  <rect x="704.16853" y="385.71405" width="115.71399" height="38.57202" fill="#9ed4bf"/>
  <g clip-path="url(#clip-path)">
    <path d="M1289.77541 1456.17461a38.57147 38.57147 0 1 0-38.571-38.571 38.57206 38.57206 0 0 0 38.571 38.571" transform="translate(-585.60664 -993.31756)" fill="#57706e"/>
  </g>
  <rect x="332.7985" y="424.28607" width="38.57101" height="192.85699" fill="#ff9400"/>
  <rect x="409.94151" y="385.71509" width="38.57199" height="231.42798" fill="#ffe559"/>
  <rect x="371.37049" y="385.71405" width="115.71399" height="38.57202" fill="#d49980"/>
  <g clip-path="url(#clip-path)">
    <path d="M956.977 1456.17461a38.57147 38.57147 0 1 0-38.572-38.571 38.57207 38.57207 0 0 0 38.572 38.571" transform="translate(-585.60664 -993.31756)" fill="#ba6e00"/>
  </g>
  <rect x=".0005" y="424.28607" width="38.571" height="192.85699" fill="#ff9400"/>
  <rect x="77.1435" y="385.71509" width="38.572" height="231.42798" fill="#ffd15e"/>
  <rect x="38.5725" y="385.71405" width="115.714" height="38.57202" fill="#8f9c80"/>
  <g clip-path="url(#clip-path)">
    <path d="M624.17864 1456.17461a38.57147 38.57147 0 1 0-38.572-38.571 38.57205 38.57205 0 0 0 38.572 38.571" transform="translate(-585.60664 -993.31756)" fill="#f60"/>
  </g>
</svg>
