<svg id="Bulb" xmlns="http://www.w3.org/2000/svg" width="29.98168" height="40.53012" viewBox="0 0 29.98168 40.53012">
  <polygon points="8.363 32.883 8.686 35.559 21.367 35.559 21.639 32.883 8.363 32.883" fill="#ededed"/>
  <path d="M100.01984 119.76506c2.54813 0 4.765-.99376 5.5804-2.37824H94.43945c.81542 1.38443 3.03227 2.37824 5.58039 2.37824Z" transform="translate(-85.00916 -79.23494)" fill="#ededed"/>
  <path d="M26.65436 22.56236a13.83109 13.83109 0 0 0-3.93987-19.25151 14.05115 14.05115 0 0 0-19.38871 3.912 13.80923 13.80923 0 0 0 0 15.33952l4.73642 7.20878h13.884l4.65864-7.08244Z" fill="none" stroke="#ededed" stroke-miterlimit="10" stroke-width="2"/>
  <path d="M97.70172 109.00608s1.84507-15.51-2.74288-11.80569 14.60511 3.22359 10.08078 0-2.8277 11.80569-2.8277 11.80569" transform="translate(-85.00916 -79.23494)" fill="none" stroke="#ededed" stroke-miterlimit="10"/>
</svg>
