<svg id="Layer_2" data-name="Layer 2" xmlns="http://www.w3.org/2000/svg" width="1920" height="1080" viewBox="0 0 1920 1080">
  <path id="Windscreen" d="M528.57108,412.16133c27.4907-26.65575,268.13744-258.98235,318.02784-272.16095L952.67334,240.621h0a156.39786,156.39786,0,0,1-16.48849,22.97169l-118.338,136.82271s-39.65989-.24974-93.59049,10.73612c0,0-142.49759-.47656-194.70041,3.22614A1.2904,1.2904,0,0,1,528.57108,412.16133Z" transform="translate(0 0)" fill="none" stroke="#000" stroke-miterlimit="10" stroke-width="4" fill-rule="evenodd"/>
  <path id="Window" d="M1294.52261,443.11038l24.16958-174.98808a5.73249,5.73249,0,0,0-5.02722-6.48607c-88.7244-10.10053-300.15664-6.10765-316.75945,1.70545C969.84168,276.07761,876.061,395.17207,844.10213,430.12709c0,0,30.51932,4.63526,95.87664,6.991C1051.56023,441.14,1231.54145,443.74019,1294.52261,443.11038Z" transform="translate(0 0)" fill="none" stroke="#000" stroke-miterlimit="10" stroke-width="4" fill-rule="evenodd"/>
  <path id="Dash" d="M474.73952,464.89321l0,0a106.06607,106.06607,0,0,1,58.39508-31.03735c44.35094-7.67661,121.84411-19.8796,174.82157-21.52086a142.05352,142.05352,0,0,0,22.73314-2.52448c28.62842-5.5676,90.44234-21.62941,100.42949,2.33975v22.62785a6.90265,6.90265,0,0,1-1.423,4.19764l-4.721,6.16275a4.86974,4.86974,0,0,0-1.10554,2.22817l-7.73123,37.68978-8.98844,9.98715,24.96788-13.982h5.99229L877.648,457.50283l25.37832,41.53559-42.94474,23.96916-3.99486,4.99358L718.264,606.89964c-.49637-.32819,133.06109,85.38257,148.593,99.49235l-.99872,7.98972-75.5055,77.83939a53.07729,53.07729,0,0,1-39.9166,16.9666l-115.59187-2.19475a33.32468,33.32468,0,0,1-27.943-16.17325L550.47993,696.784,447.61229,758.70431l1.72675-231.3852A91.08441,91.08441,0,0,1,474.73952,464.89321Z" transform="translate(0 0)" fill="none" stroke="#000" stroke-miterlimit="10" stroke-width="4" fill-rule="evenodd"/>
  <path id="Drive_seat" data-name="Drive seat" d="M1221.61639,775.68247l-305.38-75.98213s-11.21269.07979-12.2114-6.91121-13.41271-17.718-12.69865-21.84232c.71407-4.12427,3.71021-15.11014,7.70507-17.10757s3.99486-1.99743,24.96788-33.95631c0,0,5.99229-6.991,23.96915-5.99229h13.982s54.92933-34.955,191.75328,45.94089c0,0-2.99615-13.982,0-22.97044,0,0-19.97427-46.9396-2.99615-62.919,0,0,64.807-79.37876,91.88178-126.83681,26.58094-46.59227,29.96148-50.93446,46.93963-52.93189,0,0,23.96916-3.99486,41.946,12.9833Z" transform="translate(0 0)" fill="none" stroke="#000" stroke-miterlimit="10" stroke-width="3" fill-rule="evenodd"/>
  <path id="D_seat_detail" data-name="D seat detail" d="M911.016,698.7814s-10.27922-29.76657,62.87665-31.76278c35.67084-.97336,74.65492,3.512,109.35191,15.55052a156.5955,156.5955,0,0,1,41.718,22.26709c13.98616,10.35228,35.43616,24.332,45.71928,26.90277,0,0-44.49722-72.40187,17.97687-141.81751,17.97687-19.97432,45.94089-66.91391,70.90876-113.85351,18.68772-35.13287,37.9512-60.92161,39.94863-64.91647,8.77509-17.55013-9.98715-16.97816-15.97944-15.97944" transform="translate(0 0)" fill="none" stroke="#000" stroke-miterlimit="10" fill-rule="evenodd"/>
  <path id="D_head_rest" data-name="D head rest" d="M1273.3908,304.27686l-.80841,71.14072a10.99016,10.99016,0,0,0,5.03107,9.42011c6.72011,4.27083,22.26932,6.83154,58.10029-6.44285a10.30525,10.30525,0,0,0,6.66214-8.40988c1.86229-15.35468,3.56786-57.56227-15.10574-96.19914a11.81749,11.81749,0,0,0-9.106-6.61225c-8.2366-1.07025-22.7518-1.39253-32.63,7.154C1278.49416,280.41846,1273.54959,293.30312,1273.3908,304.27686Z" transform="translate(0 0)" fill="none" stroke="#000" stroke-miterlimit="10" stroke-width="4" fill-rule="evenodd"/>
  <path id="D_headrest_detail" data-name="D headrest detail" d="M1295.52132,297.298s-5.99229,2.99615-6.991,7.98972,0,64.91649,0,64.91649,8.22513,1.7818,9.98715-2.99614C1300.67156,361.3669,1295.52132,297.298,1295.52132,297.298Z" transform="translate(0 0)" fill="none" stroke="#000" stroke-miterlimit="10" fill-rule="evenodd"/>
  <path id="P_seat_body" data-name="P seat body" d="M1433.48626,401.46192c-20.20167-11.357-43.654-15.94174-66.50378-12.07271-20.26312,3.431-35.741,12.51545-45.28524,27.89777-22.18032,35.7478-59.47944,101.97786-93.58921,150.16342-23.89028,33.74881-45.02864,59.91177-59.55252,76.97813a58.61428,58.61428,0,0,0-9.92836,59.24814c5.72859,14.73555,14.60785,34.68322,28.37039,61.11887l-2.99615,10.98586s-29.64514-12.85431-34.79181-15.579c-16.97815-8.98847-37.9512-39.94863-71.90751-50.9345-59.07276-19.11173-145.92178-27.01458-183.76355,1.99743,0,0-41.57131-.46354-49.93575,4.99358-5.56424,3.63022-15.68871,17.61588-27.964,31.95888-23.99747,28.03963-53.24885,57.90767-53.93061,72.90617-.99871,21.97173,25.96659,49.93581,25.96659,49.93581h0a28.92707,28.92707,0,0,0,4.92383,23.69852l12.3064,16.41753a64.65064,64.65064,0,0,0,48.13527,26.90465l289.17832,25.85974-.24508-3.02273a18.57435,18.57435,0,0,1,13.7277-19.44836h0l55.928-38.94989h.00006a159.26948,159.26948,0,0,0,34.40611-35.35508l0-.00006a16.67232,16.67232,0,0,0,2.98465-7.97808l2.24613-22.46151A12.226,12.226,0,0,1,1265.547,825.8994l53.15567,9.33814a8.83133,8.83133,0,0,1,7.28616,9.249l-.50607,8.09695c-.09875-.02634,9.98715-15.97944,15.28661-24.77154.18762-.31136,50.568-123.77874,59.26615-154.12l38.73836-155.44236a288.96915,288.96915,0,0,1,12.82554-38.51788l9.57594-23.182a39.70493,39.70493,0,0,0,3.15463-14.34119c.20567-10.60368-3.78639-20.9334-12.01043-28.06083A118.14009,118.14009,0,0,0,1433.48626,401.46192Z" transform="translate(0 0)" fill="none" stroke="#000" stroke-miterlimit="10" stroke-width="4" fill-rule="evenodd"/>
  <path id="Headrest_P" data-name="Headrest P" d="M1339.887,242.19085l-2.919,125.51655c11.98457,25.96659,133.8278,5.99229,135.82523-17.97686,0,0,8.40605-91.533-28.97657-153.56384a16.46576,16.46576,0,0,0-11.69973-7.83965c-17.13164-2.48685-59.27243-2.55665-90.35859,47.57526A12.49366,12.49366,0,0,0,1339.887,242.19085Z" transform="translate(0 0)" fill="none" stroke="#000" stroke-miterlimit="10" stroke-width="4" fill-rule="evenodd"/>
  <path id="Headrest_P_inside" data-name="Headrest P inside" d="M1390.8986,235.877s-22.97044,7.98972-24.96787,15.97944,0,102.86766,0,102.86766,27.964.99872,30.96016-2.99614S1407.87676,299.79477,1390.8986,235.877Z" transform="translate(0 0)" fill="none" stroke="#000" stroke-miterlimit="10" fill-rule="evenodd"/>
  <path id="P_seat_detail" data-name="P seat detail" d="M793.16766,895.52825c-10.98586-34.955,14.98073-56.92675,71.90748-61.92033,32.92287-2.888,166.7854-4.99357,234.698,38.94989,40.46536,26.18347,84.89077,48.937,84.89077,48.937" transform="translate(0 0)" fill="none" stroke="#000" stroke-miterlimit="10" fill-rule="evenodd"/>
  <path id="P_seat_detail-2" data-name="P seat detail" d="M1341.46221,398.16821c86.8882-26.9653,54.92933,37.95117,6.991,114.85222-28.92689,46.4036-51.55866,107.11218-72.9062,143.815-42.31106,72.74533-102.72046,104.436-83.2628,171.52306a112.043,112.043,0,0,0,11.86992,26.68948l21.45711,35.48675" transform="translate(0 0)" fill="none" stroke="#000" stroke-miterlimit="10" fill-rule="evenodd"/>
  <polygon id="Gear_stick_shaft" data-name="Gear stick shaft" points="877.581 680.402 876.9 689.452 879.057 693.788 885.049 691.79 886.048 679.806 878.058 678.807 877.581 680.402" fill="none" stroke="#000" stroke-miterlimit="10" stroke-width="2" fill-rule="evenodd"/>
  <path id="Gearstick" d="M876.061,675.811s.99871-16.97815-1.99743-27.964c0,0-7.98972-10.98586,3.99486-14.98072s21.97173,2.99614,21.97173,7.98972-2.35441,8.43594-5.99229,12.98329c0,0-3.99486,19.81223-3.99486,22.97045,0,2.99614.99871,2.99614-1.99743,3.99486S872.06615,681.80326,876.061,675.811Z" transform="translate(0 0)" fill="none" stroke="#000" stroke-miterlimit="10" stroke-width="3" fill-rule="evenodd"/>
  <path id="Gearstick_base" data-name="Gearstick base" d="M865.07514,711.76471s0-16.97815,5.99229-16.97815c0,0,0-6.991,4.99358-5.99229,0,0,3.99486,3.99486,9.98715.99871,0,0,2.99614-.99871,2.99614,5.99229,0,0,1.99743,1.99743,1.99743,3.99486V710.766Z" transform="translate(0 0)" fill="none" stroke="#000" stroke-miterlimit="10" stroke-width="3" fill-rule="evenodd"/>
  <path id="Speedometer" d="M761.20879,456.09368l5.99229-6.991s3.99486-34.955,15.97944-36.95245,41.946-2.99614,42.94474,0,.99871,22.97045,0,24.96788a63.11662,63.11662,0,0,1-5.14554,6.95979,5.548,5.548,0,0,0-1.12819,2.36671L812.14325,483.059l-57.92547,20.973Z" transform="translate(0 0)" fill="none" stroke="#000" stroke-miterlimit="10" stroke-width="2" fill-rule="evenodd"/>
  <path id="Viser_D" data-name="Viser D" d="M932.05032,208.14146c6.91554,6.644,23.79414,23.80845,32.87361,33.07344a24.35569,24.35569,0,0,0,14.91468,7.19143c15.5481,1.59344,46.99413,3.72717,57.403-3.63945a2.752,2.752,0,0,0,.98043-3.17191c-2.96933-8.36616-15.46911-43.64627-16.34869-47.16463-.99871-3.99486-9.98715-4.99357-18.97558-3.99486-35.95374,3.99486-64.91647,3.99486-64.91647,3.99486l-3.00275-5.03969a2.41576,2.41576,0,0,0-3.0139-1.19313l-.09881.03706a5.64285,5.64285,0,0,0-3.07013,7.81791c1.56639,3.11376,3.1933,6.36757,3.1933,6.36757h0A4.00441,4.00441,0,0,0,932.05032,208.14146Z" transform="translate(0 0)" fill="none" stroke="#000" stroke-miterlimit="10" stroke-width="3" fill-rule="evenodd"/>
  <path id="Arm_rest" data-name="Arm rest" d="M1008.8901,546.97674s2.99614-3.99486,10.98586-3.99486c6.97854,0,79.48224,3.8096,97.72235,4.77387a18.85166,18.85166,0,0,1,11.26239,4.33939,13.7313,13.7313,0,0,1,5.26124,10.19888,12.80393,12.80393,0,0,1-1.2836,5.704c-1.77033,3.78046-6.08415,11.68077-12.09217,13.93378-6.26437,2.34913-62.87244,1.01456-87.0291.32863-8.75064-.24848-16.82354-3.64485-24.60408-7.6571a15.68226,15.68226,0,0,1-5.21647-4.65611l-39.39294-51.30246c-3.25153-4.23453-6.56166-9.42754-5.5268-14.66515a7.95243,7.95243,0,0,1,11.96215-4.94116c3.66327,2.198,5.10008,9.64756,5.99229,10.98587C978.92865,513.02043,1008.8901,546.97674,1008.8901,546.97674Z" transform="translate(0 0)" fill="none" stroke="#000" stroke-miterlimit="10" stroke-width="3" fill-rule="evenodd"/>
  <path id="Arm_rest_detail" data-name="Arm rest detail" d="M1008.8901,546.97674s1.99743,8.98844,12.98329,10.98587c9.7208,1.76742,84.89077,4.99357,96.87535,3.99486,3.14729-.26229,11.98458-4.99358,11.98458-7.98972" transform="translate(0 0)" fill="none" stroke="#000" stroke-miterlimit="10" fill-rule="evenodd"/>
  <path id="Viser_p" data-name="Viser p" d="M861.8632,132.25339a3.66737,3.66737,0,0,0-1.15366,5.5666c7.50873,9.26447,29.42377,34.82018,43.31549,35.63734,15.49059.91121,76.70683,3.48517,87.31494,3.92921a15.57515,15.57515,0,0,0,7.26027-1.36284,14.43054,14.43054,0,0,0,4.96133-3.79264,5.533,5.533,0,0,0,.20315-6.72484c-5.674-8.07143-20.90814-30.14569-23.57-47.77608a2.519,2.519,0,0,0-2.53993-2.16064C963.78517,115.84451,889.32386,117.96294,861.8632,132.25339Z" transform="translate(0 0)" fill="none" stroke="#000" stroke-miterlimit="10" stroke-width="3" fill-rule="evenodd"/>
  <path id="Wheel" d="M855.088,383.18749s-9.98715.93654-9.98715,8.98843c0,16.39507,67.05322,138.95776,104.03407,160.84645a6.79786,6.79786,0,0,0,8.92338-1.92046c1.29459-1.96312,1.89477-4.12517,1.89477-9.11874,0-12.9833-45.94088-84.89078-45.94088-84.89078S869.07,381.19006,855.088,383.18749Z" transform="translate(0 0)" fill="none" stroke="#000" stroke-miterlimit="10" stroke-width="3" fill-rule="evenodd"/>
  <polygon id="Radio" points="651.35 588.923 714.269 562.956 714.269 591.919 651.35 620.882 651.35 588.923" fill="none" stroke="#000" stroke-miterlimit="10" stroke-width="2" fill-rule="evenodd"/>
  <path id="Indicator" d="M816.13811,519.01272,827.124,506.02943s3.99486-17.97739,11.98458-21.97173c2.1061-1.05292,6.89334.11129,8.98844,1.99743s.49936,5.49293-.99872,6.991l-10.82379,10.8238c-2.09179,2.09179-4.50714,2.834-7.15308,4.15693l-10.98586,12.98329Z" transform="translate(0 0)" fill="none" stroke="#000" stroke-miterlimit="10" stroke-width="2" fill-rule="evenodd"/>
  <path id="Inner_wheel" data-name="Inner wheel" d="M872.06615,415.14637s67.91262,96.87535,72.90619,114.85222C944.97234,529.99859,875.06229,431.12581,872.06615,415.14637Z" transform="translate(0 0)" fill="none" stroke="#000" stroke-miterlimit="10" stroke-width="2" fill-rule="evenodd"/>
  <polygon id="Radio-2" data-name="Radio" points="653.348 481.062 653.348 525.005 717.265 505.031 718.264 467.08 653.348 481.062" fill="none" stroke="#000" stroke-miterlimit="10" stroke-width="2" fill-rule="evenodd"/>
  <path id="Rear_view" data-name="Rear view" d="M868.57064,219.89757h0a25.31154,25.31154,0,0,1,3.28353-6.62236,44.00653,44.00653,0,0,1,6.8895-7.65032,13.35186,13.35186,0,0,1,2.51149-1.84022c1.55085-.76751,3.0829-1.16735,3.88188-.36839,1.99743,1.99743,3.75909,7.51819,5.99229,11.98458,1.99743,3.99486-3.7591,43.94346-5.99229,43.94346-3.99486,0-7.98972-4.99358-7.98972-4.99358s-11.98458-6.991-10.98587-14.98072a125.1377,125.1377,0,0,0,.99872-13.982,14.14355,14.14355,0,0,1-6.211.804,5.925,5.925,0,0,1-3.78767-9.5888c6.8508-8.993,27.07339-25.43831,42.90963-33.62824a1.12192,1.12192,0,0,1,.429-.10533c2.1846-.16075,3.76506,3.49309,3.02547,4.07032,0,0-28.96274,14.98072-38.94988,30.96016C863.51715,219.594,865.5745,219.89757,868.57064,219.89757Z" transform="translate(0 0)" fill="none" stroke="#000" stroke-miterlimit="10" stroke-width="3" fill-rule="evenodd"/>
  <path id="Rear_view_detail" data-name="Rear view detail" d="M884.05073,203.41878S876.061,241.37,879.05715,249.35967a30.95981,30.95981,0,0,0,5.99229,9.98715" transform="translate(0 0)" fill="none" stroke="#000" stroke-miterlimit="10" fill-rule="evenodd"/>
  <rect width="1920" height="1080" fill="#232323"/>
  <g id="Car_outline" data-name="Car outline">
    <path id="Windscreen-2" data-name="Windscreen" d="M527.40794,412.24255C554.934,385.55251,795.8904,152.927,845.845,139.73141l106.2109,100.75007h0a156.59878,156.59878,0,0,1-16.5097,23.00125L817.05589,400.48148s-39.71092-.25007-93.7109,10.74993c0,0-142.68094-.47717-194.95093,3.23029A1.29206,1.29206,0,0,1,527.40794,412.24255Z" transform="translate(0 0)" fill="none" stroke="gray" stroke-miterlimit="10" stroke-width="4" fill-rule="evenodd"/>
    <path id="Window-2" data-name="Window" d="M1295.34512,444.23153l24.20068-175.21324a5.73987,5.73987,0,0,0-5.03369-6.49442c-88.83856-10.11352-300.54285-6.11551-317.167,1.70764-27.09867,12.75232-121,132-153,167,0,0,30.55859,4.64122,96,7C1052.07012,442.25857,1232.28292,444.86215,1295.34512,444.23153Z" transform="translate(0 0)" fill="none" stroke="gray" stroke-miterlimit="10" stroke-width="4" fill-rule="evenodd"/>
    <path id="Dash-2" data-name="Dash" d="M473.50713,465.04228l0,0A106.20247,106.20247,0,0,1,531.97737,433.965c44.408-7.68649,122.00089-19.90518,175.04651-21.54855a142.23765,142.23765,0,0,0,22.76239-2.52773c28.66525-5.57477,90.55872-21.65724,100.55872,2.34276v22.657a6.9115,6.9115,0,0,1-1.42484,4.203l-4.727,6.17069a4.87582,4.87582,0,0,0-1.107,2.231L815.345,485.23143l-9,10,25-14h6l39.589-23.589,25.411,41.589-43,24-4,5-138,79c-.497-.32861,133.2323,85.49243,148.78418,99.62036l-1,8L789.5265,792.79134a53.14555,53.14555,0,0,1-39.968,16.98843L633.818,807.5822A33.36756,33.36756,0,0,1,605.839,791.38814l-56.494-94.15671-103,62,1.729-231.68292A91.20159,91.20159,0,0,1,473.50713,465.04228Z" transform="translate(0 0)" fill="none" stroke="gray" stroke-miterlimit="10" stroke-width="4" fill-rule="evenodd"/>
    <path id="Drive_seat-2" data-name="Drive seat" d="M1221.345,776.23143,915.5721,700.15154s-11.22711.07989-12.22711-6.92011-13.43-17.74078-12.715-21.87042c.715-4.12958,3.715-15.12958,7.715-17.12958s4-2,25-34c0,0,6-7,24-6h14s55-35,192,46c0,0-3-14,0-23,0,0-20-47-3-63,0,0,64.89038-79.4809,92-127,26.61514-46.65222,30-51,47-53,0,0,24-4,42,13Z" transform="translate(0 0)" fill="none" stroke="gray" stroke-miterlimit="10" stroke-width="3" fill-rule="evenodd"/>
    <path id="D_seat_detail-2" data-name="D seat detail" d="M910.345,699.23141s-10.29245-29.80487,62.95755-31.80365c35.71673-.9746,74.751,3.51648,109.49261,15.57053a156.79718,156.79718,0,0,1,41.77173,22.29575c14.00415,10.3656,35.48175,24.36331,45.77811,26.93737,0,0-44.55448-72.495,18-142,18-20,46-67,71-114,18.71176-35.17807,38-61,40-65,8.78637-17.57271-10-17-16-16" transform="translate(0 0)" fill="none" stroke="gray" stroke-miterlimit="10" fill-rule="evenodd"/>
    <path id="D_head_rest-2" data-name="D head rest" d="M1273.186,304.21927l-.80945,71.23225a11.00431,11.00431,0,0,0,5.03754,9.43224c6.72876,4.27632,22.298,6.84033,58.17505-6.45114a10.3185,10.3185,0,0,0,6.67071-8.4207c1.86469-15.37444,3.57245-57.63634-15.12518-96.32292a11.83266,11.83266,0,0,0-9.11768-6.62076c-8.24719-1.07163-22.78106-1.39432-32.672,7.16317C1278.29594,280.33017,1273.345,293.23141,1273.186,304.21927Z" transform="translate(0 0)" fill="none" stroke="gray" stroke-miterlimit="10" stroke-width="4" fill-rule="evenodd"/>
    <path id="D_headrest_detail-2" data-name="D headrest detail" d="M1295.345,297.23141s-6,3-7,8,0,65,0,65,8.23571,1.78409,10-3C1300.50188,361.38277,1295.345,297.23141,1295.345,297.23141Z" transform="translate(0 0)" fill="none" stroke="gray" stroke-miterlimit="10" fill-rule="evenodd"/>
    <path id="P_seat_body-2" data-name="P seat body" d="M1433.48747,401.52937c-20.22766-11.37156-43.7102-15.96225-66.58935-12.08824-20.28919,3.43546-35.787,12.53156-45.34351,27.93367-22.20886,35.79379-59.556,102.10907-93.70962,150.35663-23.921,33.79224-45.08658,59.98886-59.62915,77.07718a58.68971,58.68971,0,0,0-9.94114,59.32437c5.736,14.75452,14.62665,34.72784,28.40689,61.19751l-3,11s-29.68328-12.87085-34.83657-15.599c-17-9-38-40-72-51-59.14878-19.13632-146.10955-27.04935-184,2,0,0-41.62481-.46414-50,5-5.5714,3.63489-15.7089,17.63855-28,32-24.02835,28.07571-53.31737,57.98218-54,73-1,22,26,50.00007,26,50.00007h0a28.96423,28.96423,0,0,0,4.93016,23.729l12.32223,16.43866a64.73389,64.73389,0,0,0,48.19721,26.93927l289.5504,25.893-.2454-3.02661a18.59825,18.59825,0,0,1,13.74537-19.47339h0l56-39h.00006a159.47444,159.47444,0,0,0,34.45037-35.40057l0-.00006a16.69375,16.69375,0,0,0,2.98849-7.98834l2.249-22.49042a12.24178,12.24178,0,0,1,14.2992-10.83905l53.22406,9.35016a8.84269,8.84269,0,0,1,7.29553,9.26092l-.50671,8.10736c-.09888-.02636,10-16,15.30627-24.8034.18787-.31177,50.63306-123.938,59.34241-154.31835l38.78821-155.64236a289.33784,289.33784,0,0,1,12.842-38.56744l9.58825-23.21186a39.756,39.756,0,0,0,3.1587-14.35963c.20593-10.61733-3.79126-20.96034-12.02588-28.09694A118.29329,118.29329,0,0,0,1433.48747,401.52937Z" transform="translate(0 0)" fill="none" stroke="gray" stroke-miterlimit="10" stroke-width="4" fill-rule="evenodd"/>
    <path id="Headrest_P-2" data-name="Headrest P" d="M1339.76775,242.05338l-2.92273,125.678c12,26,134,6,136-18,0,0,8.41687-91.65077-29.01386-153.76143a16.48693,16.48693,0,0,0-11.71478-7.84973c-17.15369-2.49-59.3487-2.55994-90.47485,47.63647A12.50968,12.50968,0,0,0,1339.76775,242.05338Z" transform="translate(0 0)" fill="none" stroke="gray" stroke-miterlimit="10" stroke-width="4" fill-rule="evenodd"/>
    <path id="Headrest_P_inside-2" data-name="Headrest P inside" d="M1390.845,235.73141s-23,8-25,16,0,103,0,103,28,1,31-3S1407.845,299.73141,1390.845,235.73141Z" transform="translate(0 0)" fill="none" stroke="gray" stroke-miterlimit="10" fill-rule="evenodd"/>
    <path id="P_seat_detail-3" data-name="P seat detail" d="M792.345,896.23141c-11-35,15-57,72-62,32.96522-2.89169,167-5,235,39,40.51742,26.21717,85,49,85,49" transform="translate(0 0)" fill="none" stroke="gray" stroke-miterlimit="10" fill-rule="evenodd"/>
    <path id="P_seat_detail-4" data-name="P seat detail" d="M1341.345,398.23143c87-27,55,38,7,115-28.96411,46.4633-51.625,107.25-73,144-42.36551,72.83893-102.85263,104.57037-83.36994,171.74376a112.18693,112.18693,0,0,0,11.8852,26.72382l21.48471,35.5324" transform="translate(0 0)" fill="none" stroke="gray" stroke-miterlimit="10" fill-rule="evenodd"/>
    <polygon id="Gear_stick_shaft-2" data-name="Gear stick shaft" points="876.867 680.829 876.185 689.89 878.345 694.231 884.345 692.231 885.345 680.231 877.345 679.231 876.867 680.829" fill="none" stroke="gray" stroke-miterlimit="10" stroke-width="2" fill-rule="evenodd"/>
    <path id="Gearstick-2" data-name="Gearstick" d="M875.345,676.23143s1-17-2-28c0,0-8-11,4-15s22,3,22,8-2.35744,8.44679-6,13c0,0-4,19.83772-4,23,0,3,1,3-2,4S871.345,682.23143,875.345,676.23143Z" transform="translate(0 0)" fill="none" stroke="gray" stroke-miterlimit="10" stroke-width="3" fill-rule="evenodd"/>
    <path id="Gearstick_base-2" data-name="Gearstick base" d="M864.345,712.23143s0-17,6-17c0,0,0-7,5-6,0,0,4,4,10,1,0,0,3-1,3,6,0,0,2,2,2,4v11Z" transform="translate(0 0)" fill="none" stroke="gray" stroke-miterlimit="10" stroke-width="3" fill-rule="evenodd"/>
    <path id="Speedometer-2" data-name="Speedometer" d="M760.345,456.23143l6-7s4-35,16-37,42-3,43,0,1,23,0,25a63.19845,63.19845,0,0,1-5.15216,6.96875,5.555,5.555,0,0,0-1.12964,2.36975l-7.7182,36.6615-58,21Z" transform="translate(0 0)" fill="none" stroke="gray" stroke-miterlimit="10" stroke-width="2" fill-rule="evenodd" opacity="0.4"/>
    <path id="Viser_D-2" data-name="Viser D" d="M931.40634,207.96017c6.92444,6.65253,23.82475,23.83909,32.91591,33.116a24.38716,24.38716,0,0,0,14.93387,7.20069c15.5681,1.59548,47.05459,3.732,57.4769-3.64414a2.75559,2.75559,0,0,0,.98169-3.176c-2.97315-8.37693-15.489-43.70243-16.36972-47.22532-1-4-10-5-19-4-36,4-65,4-65,4l-3.00661-5.04617a2.41887,2.41887,0,0,0-3.01778-1.19467l-.09894.03711a5.65012,5.65012,0,0,0-3.07408,7.828c1.56841,3.11777,3.19741,6.37576,3.19741,6.37576h0A4.00956,4.00956,0,0,0,931.40634,207.96017Z" transform="translate(0 0)" fill="none" stroke="gray" stroke-miterlimit="10" stroke-width="3" fill-rule="evenodd"/>
    <path id="Arm_rest-2" data-name="Arm rest" d="M1008.345,547.23143s3-4,11-4c6.98751,0,79.5845,3.8145,97.84808,4.78a18.876,18.876,0,0,1,11.27689,4.345,13.749,13.749,0,0,1,5.268,10.212,12.82033,12.82033,0,0,1-1.28525,5.7113c-1.77261,3.78533-6.092,11.6958-12.10772,13.95171-6.27243,2.35216-62.95334,1.01587-87.14109.32906-8.7619-.2488-16.84518-3.64954-24.63574-7.66695a15.70238,15.70238,0,0,1-5.22317-4.66211L963.90135,518.863c-3.2557-4.24-6.5701-9.43967-5.5339-14.684a7.96266,7.96266,0,0,1,11.97754-4.94751c3.668,2.20079,5.10664,9.66,6,11C978.345,513.23143,1008.345,547.23143,1008.345,547.23143Z" transform="translate(0 0)" fill="none" stroke="gray" stroke-miterlimit="10" stroke-width="3" fill-rule="evenodd"/>
    <path id="Arm_rest_detail-2" data-name="Arm rest detail" d="M1008.345,547.23143s2,9,13,11c9.7333,1.7697,85,5,97,4,3.15133-.26262,12-5,12-8" transform="translate(0 0)" fill="none" stroke="gray" stroke-miterlimit="10" fill-rule="evenodd"/>
    <path id="Viser_p-2" data-name="Viser p" d="M861.12891,131.97446a3.67209,3.67209,0,0,0-1.15514,5.57376c7.51839,9.2764,29.46162,34.865,43.37122,35.68319,15.51052.91239,76.80552,3.48966,87.42729,3.93427a15.59526,15.59526,0,0,0,7.26961-1.36459,14.44922,14.44922,0,0,0,4.96771-3.79752,5.54013,5.54013,0,0,0,.20341-6.73349c-5.68135-8.08182-20.935-30.18448-23.60031-47.83755a2.52221,2.52221,0,0,0-2.5432-2.16343C963.182,115.54446,888.62491,117.66562,861.12891,131.97446Z" transform="translate(0 0)" fill="none" stroke="gray" stroke-miterlimit="10" stroke-width="3" fill-rule="evenodd"/>
    <path id="Wheel-2" data-name="Wheel" d="M854.345,383.23143s-10,.93774-10,9c0,16.41617,67.13949,139.13655,104.16792,161.05341a6.80662,6.80662,0,0,0,8.93486-1.92293c1.29626-1.96565,1.89722-4.13048,1.89722-9.13048,0-13-46-85-46-85S868.345,381.23143,854.345,383.23143Z" transform="translate(0 0)" fill="none" stroke="gray" stroke-miterlimit="10" stroke-width="3" fill-rule="evenodd"/>
    <polygon id="Radio-3" data-name="Radio" points="650.345 589.231 713.345 563.231 713.345 592.231 650.345 621.231 650.345 589.231" fill="none" stroke="gray" stroke-miterlimit="10" stroke-width="2" fill-rule="evenodd" opacity="0.4"/>
    <path id="Indicator-2" data-name="Indicator" d="M815.345,519.23143l11-13s4-18.00052,12-22c2.10881-1.05428,6.9022.11143,9,2s.5,5.5-1,7l-10.83773,10.83772c-2.09448,2.09449-4.51294,2.83762-7.16227,4.16228l-11,13Z" transform="translate(0 0)" fill="none" stroke="gray" stroke-miterlimit="10" stroke-width="2" fill-rule="evenodd"/>
    <path id="Inner_wheel-2" data-name="Inner wheel" d="M871.345,415.23143s68,97,73,115C944.345,530.23143,874.345,431.23143,871.345,415.23143Z" transform="translate(0 0)" fill="none" stroke="gray" stroke-miterlimit="10" stroke-width="2" fill-rule="evenodd"/>
    <polygon id="Radio-4" data-name="Radio" points="652.345 481.231 652.345 525.231 716.345 505.231 717.345 467.231 652.345 481.231" fill="none" stroke="gray" stroke-miterlimit="10" stroke-width="2" fill-rule="evenodd" opacity="0.4"/>
    <path id="Rear_view-2" data-name="Rear view" d="M867.845,219.73141h0a25.3437,25.3437,0,0,1,3.28775-6.63089,44.06346,44.06346,0,0,1,6.89836-7.66015,13.36878,13.36878,0,0,1,2.51472-1.84259c1.55284-.7685,3.08687-1.16886,3.88687-.36887,2,2,3.76393,7.52786,6,12,2,4-3.76393,44-6,44-4,0-8-5-8-5s-12-7-11-15a125.29933,125.29933,0,0,0,1-14,14.1617,14.1617,0,0,1-6.219.80506,5.93267,5.93267,0,0,1-3.79254-9.60114c6.85962-9.00458,27.10823-25.471,42.96484-33.67151a1.12372,1.12372,0,0,1,.4296-.10547c2.18741-.16095,3.7699,3.49759,3.02936,4.07556,0,0-29,15-39,31C862.785,219.4274,864.845,219.73141,867.845,219.73141Z" transform="translate(0 0)" fill="none" stroke="gray" stroke-miterlimit="10" stroke-width="3" fill-rule="evenodd"/>
    <path id="Rear_view_detail-2" data-name="Rear view detail" d="M883.345,203.23141s-8,38-5,46a30.99938,30.99938,0,0,0,6,10" transform="translate(0 0)" fill="none" stroke="gray" stroke-miterlimit="10" fill-rule="evenodd"/>
  </g>
</svg>
