<svg  xmlns="http://www.w3.org/2000/svg" width="431.99809" height="432.00001" viewBox="0 0 431.99809 432.00001">

  <g class="noteAnime" clip-path="url(#clip-path)">
    <path d="M9530.34561 719.49384a24 24 0 1 0-24-24 23.9998 23.9998 0 0 0 24 24" transform="translate(-9218.34701 -311.49384)" fill="#b85eb5"/>
    <path d="M9338.3465 719.49384a24 24 0 1 0-24-24 23.99977 23.99977 0 0 0 24 24" transform="translate(-9218.34701 -311.49384)" fill="#6678ff"/>
    <path d="M9626.34509 551.49385a24 24 0 1 0-24-24 23.99979 23.99979 0 0 0 24 24" transform="translate(-9218.34701 -311.49384)" fill="#fa7d99"/>
    <path d="M9602.34521 455.49384a24 24 0 1 0-24-24 23.9998 23.9998 0 0 0 24 24" transform="translate(-9218.34701 -311.49384)" fill="#ffab5e"/>
    <path d="M9530.34561 335.49384a24 24 0 0 0 0 48Z" transform="translate(-9218.34701 -311.49384)" fill="#f5ed45"/>
    <path d="M9530.34561 383.49384a24 24 0 0 0 0-48Z" transform="translate(-9218.34701 -311.49384)" fill="#ffab5e"/>
    <path d="M9434.346 359.49384a24 24 0 1 0-24-24 23.99979 23.99979 0 0 0 24 24" transform="translate(-9218.34701 -311.49384)" fill="#f5ed45"/>
    <path d="M9266.34691 647.49384a24 24 0 1 0-24-24 23.99979 23.99979 0 0 0 24 24" transform="translate(-9218.34701 -311.49384)" fill="#45abe0"/>
    <path d="M9266.34691 455.49384a24 24 0 1 0-24-24 23.99979 23.99979 0 0 0 24 24" transform="translate(-9218.34701 -311.49384)" fill="#0fc79c"/>
    <path d="M9602.34521 647.49384a24 24 0 1 0 0-48Z" transform="translate(-9218.34701 -311.49384)" fill="#fa7d99"/>
    <path d="M9602.34521 599.49385a24 24 0 0 0 0 48ZM9434.3461 743.49375a24 24 0 0 0 0-48Z" transform="translate(-9218.34701 -311.49384)" fill="#b85eb5"/>
    <path d="M9434.346 695.49384a24 24 0 0 0 0 48Z" transform="translate(-9218.34701 -311.49384)" fill="#6678ff"/>
    <path d="M9242.347 551.49385a24 24 0 1 0 0-48Z" transform="translate(-9218.34701 -311.49384)" fill="#45abe0"/>
    <path d="M9242.347 503.49385a24 24 0 0 0 0 48ZM9338.3465 335.49384a24 24 0 0 0 0 48Z" transform="translate(-9218.34701 -311.49384)" fill="#0fc79c"/>
    <path d="M9338.3465 383.49384a24 24 0 0 0 0-48Z" transform="translate(-9218.34701 -311.49384)" fill="#f5ed45"/>
  </g>

</svg>
